<?xml version="1.0" encoding="UTF-8"?>
<!-- Generated by jsxcad -->
<!DOCTYPE svg PUBLIC "-//W3C//DTD SVG 1.1 Tiny//EN" "http://www.w3.org/Graphics/SVG/1.1/DTD/svg11-tiny.dtd">
<svg baseProfile="tiny" height="83.94753mm" width="83.97239mm" viewBox="-0.00090 0.05247 83.97239 83.94753" version="1.1" stroke="black" stroke-width=".1" fill="none" xmlns="http://www.w3.org/2000/svg">
<path fill="#000000" stroke="#000000" d="M-0.00090 40.92325 L0.31214 36.77043 L1.04258 32.63550 L2.16623 28.64178 L3.71931 24.68773 L5.62569 20.97669 L7.90235 17.45712 L10.50542 14.19681 L13.39745 11.23094 L16.58633 8.55015 L20.09208 6.15747 L23.73859 4.17067 L27.60946 2.53691 L31.64683 1.29231 L35.72053 0.46986 L39.88661 0.05247 L44.08398 0.05247 L48.25005 0.46986 L52.32376 1.29231 L56.36113 2.53691 L60.23200 4.17067 L63.87851 6.15747 L67.38426 8.55015 L70.57314 11.23094 L73.46517 14.19681 L76.06823 17.45712 L78.34489 20.97669 L80.25128 24.68773 L81.80436 28.64178 L82.92801 32.63550 L83.65845 36.77043 L83.97149 40.92325 L83.87023 45.10685 L83.34388 49.31216 L82.41703 53.36989 L81.08261 57.34274 L79.36058 61.15955 L77.24135 64.82565 L74.81826 68.19154 L72.02765 71.35059 L68.96340 74.18978 L65.68475 76.67471 L62.09071 78.87509 L58.34032 80.68479 L54.38209 82.12879 L50.30213 83.16832 L46.17482 83.79052 L41.98529 84.00000 L37.79577 83.79052 L33.66846 83.16832 L29.58850 82.12879 L25.63027 80.68479 L21.87988 78.87509 L18.28584 76.67471 L15.00719 74.18978 L11.94294 71.35059 L9.15233 68.19154 L6.72924 64.82565 L4.61001 61.15955 L2.88797 57.34274 L1.55356 53.36989 L0.62671 49.31216 L0.10036 45.10685 z"/>
</svg>