<?xml version="1.0" encoding="UTF-8"?>
<!-- Generated by jsxcad -->
<!DOCTYPE svg PUBLIC "-//W3C//DTD SVG 1.1 Tiny//EN" "http://www.w3.org/Graphics/SVG/1.1/DTD/svg11-tiny.dtd">
<svg baseProfile="tiny" height="88.94709mm" width="88.97219mm" viewBox="-0.00038 0.05291 88.97219 88.94709" version="1.1" stroke="black" stroke-width=".1" fill="none" xmlns="http://www.w3.org/2000/svg">
<path fill="#000000" stroke="#000000" d="M88.66001 49.87420 L87.94648 54.06095 L86.82085 58.21081 L85.28355 62.27038 L83.38032 66.12082 L81.13159 69.74538 L78.47942 73.21721 L75.58336 76.33059 L72.31991 79.22042 L68.83582 81.74678 L65.12307 83.92524 L61.25677 85.71871 L57.23702 87.13395 L53.01870 88.17423 L48.81687 88.78872 L44.48571 89.00000 L40.15456 88.78872 L35.95272 88.17423 L31.73440 87.13395 L27.71466 85.71871 L23.84836 83.92524 L20.13561 81.74678 L16.65151 79.22042 L13.38807 76.33059 L10.49201 73.21721 L7.83983 69.74538 L5.59111 66.12082 L3.68788 62.27038 L2.15058 58.21081 L1.02495 54.06095 L0.31142 49.87420 L-0.00038 45.61233 L0.10324 41.26791 L0.62571 36.98000 L1.54030 32.84061 L2.89023 28.68654 L4.58108 24.80558 L6.70270 20.99057 L9.15861 17.43996 L11.88516 14.21050 L14.97324 11.19439 L18.36807 8.47059 L21.89341 6.16154 L25.76433 4.12972 L29.72097 2.52081 L33.85404 1.28869 L38.04704 0.46827 L42.31627 0.05291 L46.65516 0.05291 L50.92439 0.46827 L55.11739 1.28869 L59.25045 2.52081 L63.20710 4.12972 L67.07802 6.16154 L70.60336 8.47059 L73.99819 11.19439 L77.08627 14.21050 L79.81282 17.43996 L82.26873 20.99057 L84.39035 24.80558 L86.08120 28.68654 L87.43113 32.84061 L88.34571 36.98000 L88.86818 41.26791 L88.97181 45.61233 z"/>
</svg>